<svg width="44" height="41" viewBox="0 0 44 41" fill="none" xmlns="http://www.w3.org/2000/svg">
<path d="M27.1023 20.5454L31.2341 18.5H45L42.9545 14.4091H34.8341L39.7227 7.925L37.6977 3.83409L29.3932 14.8182L25.2614 16.8841L26.0795 12.3636L34.425 1.35909L29.9455 0.540909L22.5 10.3182L15.1364 0.5L10.6364 1.31818L18.9409 12.3636L19.7591 16.8841L15.9955 15.0023L15.6682 14.8386L7.36364 3.77273L5.31818 7.86363L10.2273 14.4091H2.04545L0 18.5H13.8477L17.8977 20.5454L13.7659 22.5909H0L2.04545 26.6818H10.1659L5.27727 33.1659L7.30227 37.2568L15.6068 26.2727L19.7386 24.2068L18.9205 28.7273L10.575 39.7318L15.0545 40.5704L22.5 30.7727L29.8636 40.5909L34.3636 39.7727L26.0591 28.7273L25.2409 24.2068L29.3318 26.2523L37.6364 37.3182L39.6818 33.2273L34.7727 26.6818H42.9545L45 22.5909H31.1523" fill="#4D254A"/>
</svg>
